<svg xmlns="http://www.w3.org/2000/svg" viewBox="0 0 512 512" role="img" aria-labelledby="title">
  <title>ERW Bakim Ikonu</title>
  <defs>
    <linearGradient id="bg" x1="0%" y1="0%" x2="100%" y2="100%">
      <stop offset="0%" stop-color="#f7f9fc" />
      <stop offset="100%" stop-color="#eef2f7" />
    </linearGradient>
    <linearGradient id="wrenchHead" x1="0%" y1="0%" x2="0%" y2="100%">
      <stop offset="0%" stop-color="#6cc9ff" />
      <stop offset="100%" stop-color="#2a8ce8" />
    </linearGradient>
    <linearGradient id="wrenchHandle" x1="0%" y1="0%" x2="0%" y2="100%">
      <stop offset="0%" stop-color="#46abff" />
      <stop offset="100%" stop-color="#1f5fd0" />
    </linearGradient>
    <linearGradient id="steel" x1="0%" y1="0%" x2="0%" y2="100%">
      <stop offset="0%" stop-color="#d5dde8" />
      <stop offset="100%" stop-color="#8f9daf" />
    </linearGradient>
    <linearGradient id="handle" x1="0%" y1="0%" x2="0%" y2="100%">
      <stop offset="0%" stop-color="#ffe15f" />
      <stop offset="100%" stop-color="#f0a800" />
    </linearGradient>
    <linearGradient id="gear" x1="0%" y1="0%" x2="100%" y2="100%">
      <stop offset="0%" stop-color="#c7d1de" />
      <stop offset="100%" stop-color="#8c9db1" />
    </linearGradient>
    <linearGradient id="cardBody" x1="0%" y1="0%" x2="100%" y2="100%">
      <stop offset="0%" stop-color="#edf6ff" />
      <stop offset="100%" stop-color="#c9e1f6" />
    </linearGradient>
    <linearGradient id="cardTop" x1="0%" y1="0%" x2="100%" y2="0%">
      <stop offset="0%" stop-color="#ef5b59" />
      <stop offset="100%" stop-color="#d52e2e" />
    </linearGradient>
  </defs>

  <rect width="512" height="512" rx="96" fill="url(#bg)" />

  <g>
    <circle cx="128" cy="116" r="72" fill="url(#wrenchHead)" />
    <rect x="103" y="36" width="50" height="74" rx="16" fill="#f7f9fc" />
    <rect x="88" y="160" width="80" height="234" rx="40" fill="url(#wrenchHandle)" />
    <rect x="108" y="182" width="24" height="142" rx="12" fill="#1e73da" opacity="0.5" />
    <circle cx="128" cy="420" r="50" fill="url(#wrenchHandle)" />
    <circle cx="128" cy="420" r="25" fill="#f7f9fc" />
  </g>

  <g>
    <rect x="230" y="76" width="24" height="208" rx="12" fill="url(#steel)" />
    <path d="M242 46l14 30h-28z" fill="#c5cfdb" />
    <rect x="200" y="258" width="84" height="18" rx="9" fill="#f7cf2d" />
    <rect x="214" y="274" width="56" height="154" rx="28" fill="url(#handle)" />
    <rect x="220" y="290" width="6" height="88" rx="3" fill="#fff6bf" opacity="0.85" />
  </g>

  <g transform="translate(360 154)">
    <g fill="#a7b4c5">
      <rect x="-16" y="-86" width="32" height="28" rx="8" />
      <rect x="-16" y="58" width="32" height="28" rx="8" />
      <rect x="-86" y="-16" width="28" height="32" rx="8" />
      <rect x="58" y="-16" width="28" height="32" rx="8" />
      <rect x="-70" y="-70" width="28" height="28" rx="8" transform="rotate(-45)" />
      <rect x="42" y="-70" width="28" height="28" rx="8" transform="rotate(45)" />
      <rect x="-70" y="42" width="28" height="28" rx="8" transform="rotate(45)" />
      <rect x="42" y="42" width="28" height="28" rx="8" transform="rotate(-45)" />
    </g>
    <circle cx="0" cy="0" r="74" fill="url(#gear)" />
    <circle cx="0" cy="0" r="36" fill="#f7f9fc" />
  </g>

  <g>
    <rect x="250" y="270" width="196" height="124" rx="16" fill="url(#cardBody)" />
    <rect x="250" y="270" width="196" height="32" rx="16" fill="url(#cardTop)" />
    <rect x="272" y="340" width="112" height="12" rx="6" fill="#2d9de8" />
    <rect x="272" y="365" width="84" height="12" rx="6" fill="#2d9de8" />
    <rect x="368" y="365" width="40" height="12" rx="6" fill="#2d9de8" />
    <path d="M406 270h40v124h-78z" fill="#ffffff" opacity="0.28" />
  </g>
</svg>
